<svg xmlns="http://www.w3.org/2000/svg" xmlns:xlink="http://www.w3.org/1999/xlink" xmlns:lucid="lucid" width="1501.5" height="718.81"><g transform="translate(-99.49980036368594 -62.1882145867915)" lucid:page-tab-id="0_0"><path d="M141.38 423.6h-19.75c-.9 0-1.63-.74-1.63-1.63v-2.42c0-9.03 5.94-16.6 14.75-18.73.4-.1.8-.05 1.16.16 2.6 1.4 5.42 1.4 8 0 .4-.2.76-.26 1.17-.16 2.3.57 4.22 1.4 6.2 2.7l-1.82 2.7c-1.47-.95-2.85-1.6-4.57-2.05-3.28 1.5-6.66 1.5-9.94 0-7.03 1.96-11.7 8.1-11.7 15.38v.8h18.14z" stroke="#fff" stroke-opacity="0" fill="#666"/><path d="M139.9 405.2c-5.9 0-10.65-4.77-10.65-10.63 0-5.86 4.76-10.62 10.64-10.62 5.86-.06 10.65 4.65 10.72 10.5.04 4.05-2 7.5-5.58 9.42-1.65.92-3.25 1.32-5.15 1.32zm0-18.02c-4.12 0-7.47 3.3-7.5 7.4 0 2.77 1.42 5.15 3.88 6.47 2.33 1.25 4.9 1.25 7.22 0 2.48-1.34 3.9-3.76 3.87-6.6-.05-4.04-3.4-7.3-7.48-7.25zM194.6 423.6h-19.75v-3.25H193v-.8c0-7.3-4.68-13.43-11.7-15.4-3.3 1.54-6.67 1.54-9.96 0-1.72.5-3.13 1.15-4.6 2.18l-1.85-2.67c1.96-1.37 3.87-2.24 6.2-2.83.4-.1.8-.05 1.18.16 2.57 1.38 5.42 1.38 8.02 0 .38-.22.75-.26 1.16-.17 8.8 2.12 14.75 9.7 14.75 18.73v2.4c0 .9-.7 1.6-1.6 1.63z" stroke="#fff" stroke-opacity="0" fill="#666"/><path d="M176.28 405.2c-5.9 0-10.7-4.83-10.7-10.73s4.83-10.68 10.75-10.68 10.7 4.8 10.7 10.7c0 4.03-2.04 7.46-5.58 9.38-1.67.9-3.28 1.3-5.16 1.3zm0-18c-4.1-.03-7.44 3.26-7.46 7.37-.02 2.8 1.4 5.16 3.86 6.47 2.32 1.26 4.9 1.26 7.23 0 2.52-1.33 3.95-3.77 3.9-6.62-.07-4.06-3.44-7.3-7.52-7.23zM184 460h-51.86c-.88 0-1.6-.7-1.6-1.6v-3.45c-.05-12.47 8.2-22.95 20.32-25.9.44-.12.83-.05 1.2.13 3.87 2.08 8.1 2.08 12 0 .34-.18.73-.25 1.17-.12 12.17 2.9 20.43 13.4 20.37 25.9v3.43c0 .9-.7 1.6-1.6 1.6zm-50.2-3.22h48.55v-1.83c0-10.73-6.93-19.75-17.34-22.54-4.56 2.2-9.35 2.2-13.92 0-10.4 2.8-17.3 11.82-17.3 22.55z" stroke="#fff" stroke-opacity="0" fill="#666"/><path d="M158.13 433.94c-2.57 0-4.76-.56-7.04-1.78-7.08-3.88-9.68-12.7-5.82-19.78 3.88-7.06 12.73-9.65 19.83-5.8 7.08 3.87 9.67 12.7 5.82 19.78-1.4 2.57-3.24 4.4-5.8 5.8-2.26 1.22-4.45 1.78-7 1.78zm0-25.5c-4.24-.06-7.9 2.07-9.93 5.8-2.92 5.4-.94 12.15 4.47 15.1 3.5 1.86 7.36 1.86 10.86 0 3.77-2.05 5.93-5.7 5.87-9.94-.1-6.12-5.14-11.04-11.27-10.96z" stroke="#fff" stroke-opacity="0" fill="#666"/><path d="M195.05 423.6H157.2c-.64 0-1.16-.53-1.16-1.18v-2.5c-.04-9.1 6-16.75 14.83-18.9.32-.1.6-.05.88.1 2.8 1.5 5.9 1.5 8.76 0 .25-.15.53-.2.85-.1 8.88 2.13 14.9 9.77 14.86 18.9v2.5c0 .65-.5 1.17-1.15 1.17zm-36.64-2.36h35.44v-1.33c0-7.82-5.06-14.4-12.65-16.44-3.35 1.6-6.84 1.6-10.17 0-7.6 2.04-12.62 8.62-12.62 16.45z" stroke="#fff" stroke-opacity="0" stroke-width=".73" fill="#fff" fill-opacity="0"/><path d="M159 423.6h-37.83c-.65 0-1.17-.53-1.17-1.18v-2.5c-.04-9.1 5.98-16.75 14.82-18.9.32-.1.6-.05.9.1 2.8 1.5 5.9 1.5 8.74 0 .24-.15.53-.2.85-.1 8.88 2.13 14.9 9.77 14.87 18.9v2.5c0 .65-.52 1.17-1.16 1.17zm-36.63-2.36h35.43v-1.33c0-7.82-5.06-14.4-12.65-16.44-3.34 1.6-6.83 1.6-10.17 0-7.6 2.04-12.6 8.62-12.6 16.45z" stroke="#fff" stroke-opacity="0" stroke-width=".73" fill="#fff" fill-opacity="0"/><path d="M531.84 284.7H1460V580H531.84z" fill="#fff" fill-opacity="0"/><path d="M543.84 284.7h8m8 0h8m8 0h8m8 0h8m8 0h8m8 0h8.02m8 0h8m8 0h8m8 0h8m8 0h8m8 0h8m8 0h8m8 0h8m8.02 0h8m8 0h8m8 0h8m8 0h8m8 0h8m8 0h8m8 0h8m8.02 0h8m8 0h8m8 0h8m8 0h8m8 0h8m8 0h8m8 0h8m8.02 0h8m8 0h8m8 0h8m8 0h8m8 0h8m8 0h8m8 0h8m8 0h8.02m8 0h8m8 0h8m8 0h8m8 0h8m8 0h8m8 0h8m8 0h8.02m8 0h8m8 0h8m8 0h8m8 0h8m8 0h8m8 0h8m8 0h8.02m8 0h8m8 0h8m8 0h8m8 0h8m8 0h8m8 0h8m8 0h8m8.02 0h8m8 0h4v4.1m0 8.2v8.2m0 8.2v8.2m0 8.2v8.2m0 8.22v8.2m0 8.2v8.2m0 8.2v8.2m0 8.2v8.22m0 8.2v8.2m0 8.2v8.2m0 8.2v8.2m0 8.22v8.2m0 8.2v8.2m0 8.2v8.2m0 8.2v8.22m0 8.2v8.2m0 8.2v8.2m0 8.2v8.22m0 8.2v4.1h-4m-8 0h-8m-8 0h-8m-8 0h-8m-8 0h-8m-8 0h-8.02m-8 0h-8m-8 0h-8m-8 0h-8m-8 0h-8m-8 0h-8m-8 0h-8m-8 0h-8m-8.02 0h-8m-8 0h-8m-8 0h-8m-8 0h-8m-8 0h-8m-8 0h-8m-8 0h-8m-8.02 0h-8m-8 0h-8m-8 0h-8m-8 0h-8m-8 0h-8m-8 0h-8m-8 0h-8m-8.02 0h-8m-8 0h-8m-8 0h-8m-8 0h-8m-8 0h-8m-8 0h-8m-8 0h-8m-8 0h-8.02m-8 0h-8m-8 0h-8m-8 0h-8m-8 0h-8m-8 0h-8m-8 0h-8m-8 0h-8m-8.02 0h-8m-8 0h-8m-8 0h-8m-8 0h-8m-8 0h-8m-8 0h-8m-8 0h-8m-8.02 0h-8m-8 0h-8m-8 0h-8m-8 0h-8m-8 0h-8m-8 0h-8m-8 0h-8m-8 0h-8.02m-8 0h-8m-8 0h-4v-4.1m0-8.2v-8.2m0-8.2v-8.2m0-8.22v-8.2m0-8.2v-8.2m0-8.2v-8.2m0-8.2v-8.22m0-8.2v-8.2m0-8.2v-8.2m0-8.2v-8.2m0-8.22v-8.2m0-8.2v-8.2m0-8.2v-8.2m0-8.22v-8.2m0-8.2v-8.2m0-8.2v-8.2m0-8.2v-8.22m0-8.2V297m0-8.2v-4.1h4" stroke="#147eba" stroke-width="2" fill="none"/><path d="M531.92 580V284.7h28.2V580z" stroke="#000" stroke-opacity="0" stroke-width="2" fill="#fff" fill-opacity="0"/><use xlink:href="#a" transform="matrix(6.123233995736766e-17,-1,1,6.123233995736766e-17,536.9231618777048,575) translate(61.32098765432099 18.159022222222223)"/><use xlink:href="#b" transform="matrix(6.123233995736766e-17,-1,1,6.123233995736766e-17,536.9231618777048,575) translate(148.03703703703704 18.159022222222223)"/><path d="M625.5 303.2h360v200h-360z" fill="#248814" fill-opacity=".13"/><path d="M625.5 303.2h56v56h-56v-56z" stroke="#fff" stroke-opacity="0" fill="#248814"/><path d="M668.88 325.36c-.16-.16-.35-.25-.56-.25h-5.15v-5.56c-.03-2.54-.97-4.7-2.84-6.4-1.9-1.84-4.15-2.75-6.77-2.75-2.65 0-4.9.82-6.8 2.6-1.9 1.7-2.87 3.88-2.9 6.42v5.65h-5.15c-.24 0-.43.1-.6.25-.14.17-.2.33-.2.58v25.3c0 .4.34.8.8.8h29.58c.47 0 .82-.4.82-.8v-25.3c0-.2-.07-.37-.22-.54zm-23.47-5.9c.05-2.13.83-3.87 2.4-5.3 1.6-1.48 3.5-2.2 5.73-2.2 2.2 0 4.12.76 5.7 2.25 1.54 1.43 2.32 3.22 2.32 5.34v5.57h-16.17zm22.1 30.95h-28v-23.7h28z" stroke="#fff" stroke-opacity="0" fill="#fff"/><path d="M652.7 340.5v6.24h1.6v-6.23c2.12-.38 3.62-2.18 3.63-4.34 0-2.43-1.98-4.4-4.42-4.43-2.2-.03-4.04 1.5-4.4 3.68-.42 2.4 1.2 4.7 3.6 5.1zm.8-7.16c.8 0 1.45.27 2 .82.56.56.83 1.22.83 2 0 1.54-1.22 2.8-2.76 2.82h-.06c-1.55.12-2.9-1.05-3.02-2.6-.12-1.57 1.05-2.94 2.6-3.04.16-.02.28-.02.43 0z" stroke="#fff" stroke-opacity="0" fill="#fff"/><use xlink:href="#c" transform="matrix(1,0,0,1,696.4959883926475,323.18821458679156) translate(0 14.222222222222223)"/><use xlink:href="#d" transform="matrix(1,0,0,1,696.4959883926475,323.18821458679156) translate(53.23456790123458 14.222222222222223)"/><use xlink:href="#e" transform="matrix(1,0,0,1,696.4959883926475,323.18821458679156) translate(114.46913580246915 14.222222222222223)"/><path d="M1025.5 303.2h360v200h-360z" fill="#147eba" fill-opacity=".13"/><path d="M1025.5 303.2h56v56h-56v-56z" stroke="#fff" stroke-opacity="0" fill="#147eba"/><path d="M1068.88 325.36c-.16-.16-.35-.25-.56-.25h-5.15v-5.56c-.03-2.54-.97-4.7-2.84-6.4-1.9-1.84-4.15-2.75-6.77-2.75-2.65 0-4.9.82-6.8 2.6-1.9 1.7-2.87 3.88-2.9 6.42v5.65h-5.15c-.24 0-.43.1-.6.25-.14.17-.2.33-.2.58v25.3c0 .4.34.8.8.8h29.6c.45 0 .8-.4.8-.8v-25.3c0-.2-.07-.37-.22-.54zm-23.47-5.9c.05-2.13.83-3.87 2.4-5.3 1.6-1.48 3.5-2.2 5.73-2.2 2.2 0 4.12.76 5.7 2.25 1.54 1.43 2.32 3.22 2.32 5.34v5.57h-16.17zm22.1 30.95h-28v-23.7h28z" stroke="#fff" stroke-opacity="0" fill="#fff"/><path d="M1052.7 340.5v6.24h1.6v-6.23c2.12-.38 3.62-2.18 3.63-4.34 0-2.43-1.98-4.4-4.42-4.43-2.2-.03-4.04 1.5-4.4 3.68-.42 2.4 1.2 4.7 3.6 5.1zm.8-7.16c.8 0 1.45.27 2.02.82.54.56.8 1.22.8 2 .02 1.54-1.2 2.8-2.75 2.82h-.06c-1.55.12-2.9-1.05-3.02-2.6-.12-1.57 1.05-2.94 2.6-3.04.16-.02.28-.02.43 0z" stroke="#fff" stroke-opacity="0" fill="#fff"/><use xlink:href="#f" transform="matrix(1,0,0,1,1096.4959883926476,323.18821458679156) translate(0 14.222222222222223)"/><use xlink:href="#g" transform="matrix(1,0,0,1,1096.4959883926476,323.18821458679156) translate(60.14814814814815 14.222222222222223)"/><use xlink:href="#h" transform="matrix(1,0,0,1,1096.4959883926476,323.18821458679156) translate(121.38271604938274 14.222222222222223)"/><use xlink:href="#i" transform="matrix(1,0,0,1,1096.4959883926476,323.18821458679156) translate(136.19753086419755 14.222222222222223)"/><use xlink:href="#j" transform="matrix(1,0,0,1,1096.4959883926476,323.18821458679156) translate(147.01234567901236 14.222222222222223)"/><path d="M158.1 460.5v25.27a12 12 0 0 0 12 12H188a12 12 0 0 1 12 12v9.38" stroke="#666" fill="none"/><path d="M158.58 460.5h-.95v-.5h.95z" stroke="#666" stroke-width=".05" fill="#666"/><path d="M200 533.92l-4.63-14.27h9.26z" stroke="#666" fill="#666"/><path d="M565.5 203.2H1480V700H565.5z" stroke="#248814" stroke-width="2" fill-opacity="0"/><path d="M565.5 203.2h56v56h-56v-56z" stroke="#fff" stroke-opacity="0" fill="#248814"/><path d="M597.25 231.5h-1.18v-1.1c-.12-1.74-1.47-3.1-3.2-3.2-1.9-.14-3.53 1.3-3.66 3.2v1.06h-1.17c-.45 0-.8.36-.8.8v6.12c0 .45.35.8.8.8h9.22c.45 0 .8-.35.8-.8v-6.08c0-.45-.35-.8-.8-.8zm-6.4-1.08c.1-1.02 1-1.76 2-1.66.9.08 1.6.76 1.67 1.66v1.07h-3.7zm5.66 7.1h-7.67v-4.43h7.62z" stroke="#fff" stroke-opacity="0" fill="#fff"/><path d="M607.76 228.93c-.08-2.44-1.58-4.47-3.87-5.3-1.6-.46-3.17-.13-4.42.9-.66-1.44-1.45-2.6-2.58-3.75-3.24-3.35-7.94-4.28-12.2-2.4-4.02 1.9-6.4 5.64-6.52 10.06v.7c-3.4.97-5.66 4.08-5.5 7.65v.62c.38 4.28 3.92 7.52 8.2 7.47l26-.02s7.42-.63 7.42-8.1c.04-3.9-2.67-7.2-6.54-7.85zm-.95 14.4H580.9c-3.45.04-6.28-2.54-6.57-5.97v-.52c-.16-3.05 1.92-5.7 4.92-6.3.37-.13.62-.48.58-.9-.04-.4-.04-.73 0-1.15.1-3.8 2.12-6.95 5.54-8.6 1.25-.58 2.4-.82 3.82-.85 2.63.08 4.87 1.04 6.7 2.94 1.25 1.28 2.04 2.6 2.63 4.3.03.13.1.27.24.35.37.28.87.2 1.12-.16.83-1.2 2.25-1.7 3.62-1.3 1.8.7 2.87 2.4 2.83 4.3-.07.42.22.83.63.9 3.58.37 6.2 3.56 5.83 7.13-.3 3.13-2.7 5.5-5.83 5.84z" stroke="#fff" stroke-opacity="0" fill="#fff"/><use xlink:href="#k" transform="matrix(1,0,0,1,636.4959883926475,223.18821458679162) translate(0 14.222222222222223)"/><use xlink:href="#l" transform="matrix(1,0,0,1,636.4959883926475,223.18821458679162) translate(0 33.777777777777786)"/><path d="M425.5 83.2H1580V760H425.5z" stroke="#232f3e" stroke-width="2" fill-opacity="0"/><path d="M425.5 83.2h56v56h-56v-56z" stroke="#fff" stroke-opacity="0" fill="#232f3e"/><path d="M443.72 109.06c-.04.48.04.87.16 1.33.13.37.3.7.5 1.06.04.1.08.2.08.34 0 .2-.12.35-.3.45l-.93.62c-.13.08-.25.13-.37.13-.17 0-.33-.08-.45-.22-.2-.2-.36-.42-.53-.7-.16-.24-.3-.52-.45-.86-1.1 1.38-2.63 2.1-4.4 2.07-1.14.05-2.13-.32-2.95-1.1-.78-.78-1.15-1.75-1.1-2.84-.05-1.23.4-2.28 1.35-3.08 1.06-.85 2.3-1.23 3.65-1.16.58 0 1.03.03 1.6.12.58.08 1.1.2 1.73.32v-1.1c.08-.88-.17-1.67-.7-2.37-.74-.57-1.56-.8-2.47-.7-.53 0-1.02.06-1.6.18-.57.14-1.02.3-1.6.52l-.5.2h-.24c-.2 0-.33-.17-.33-.47v-.74c0-.2.04-.35.12-.52.1-.15.24-.25.4-.32.66-.3 1.2-.5 1.9-.67.77-.2 1.47-.3 2.3-.3 1.46-.12 2.78.27 3.9 1.2.93 1.05 1.34 2.3 1.22 3.68zm-6.08 2.28c.58 0 1.07-.1 1.6-.28.58-.2 1.03-.5 1.44-.96.25-.28.4-.58.5-.94.12-.45.16-.84.16-1.3v-.67c-.53-.1-.95-.18-1.44-.22h-1.4c-.82-.07-1.56.13-2.2.6-.55.44-.8 1.03-.75 1.72-.04.6.12 1.15.53 1.6.45.37 1 .5 1.56.44zm12 1.6c-.2 0-.42-.03-.58-.16-.17-.17-.25-.35-.33-.6l-3.5-11.5-.1-.62c0-.23.1-.36.36-.36h1.46c.2-.02.37.03.58.14.16.18.25.36.3.6l2.5 9.95 2.37-9.94c0-.24.1-.44.3-.6.17-.12.37-.16.57-.15h1.2c.24 0 .4.04.6.15.18.2.26.37.3.6l2.34 9.94 2.56-10c.04-.22.16-.42.32-.6.17-.1.37-.16.58-.13h1.4c.16 0 .32.1.37.3V100.27s0 .22-.13.37l-3.6 11.53c-.05.22-.13.42-.3.6-.2.1-.37.14-.57.13h-1.28c-.24.02-.45-.03-.6-.16-.18-.17-.26-.36-.3-.6l-2.3-9.6-2.3 9.6c-.04.24-.12.43-.3.6-.2.13-.4.2-.6.16zm19.2.38c-.8 0-1.5-.07-2.3-.25-.65-.13-1.14-.3-1.7-.6-.22-.1-.38-.23-.46-.42-.1-.14-.13-.28-.13-.43v-.75c0-.3.13-.46.33-.46h.3l.36.16c.57.24 1.02.4 1.6.5.6.15 1.15.2 1.8.2.8.06 1.48-.1 2.18-.5.5-.3.78-.8.74-1.4.04-.4-.12-.75-.37-1.03-.46-.4-.95-.65-1.53-.8l-2.17-.68c-.95-.25-1.73-.73-2.4-1.5-.48-.65-.73-1.35-.73-2.18 0-.6.13-1.08.42-1.6.27-.5.6-.9 1.05-1.22.5-.38 1-.6 1.6-.78.66-.18 1.2-.26 1.9-.25.32-.03.6-.03.98 0l.98.15.84.24.65.27c.16.1.28.22.44.38.1.15.13.3.13.5v.7c0 .3-.13.47-.37.47-.2-.03-.37-.1-.58-.2v.02c-.94-.43-1.8-.6-2.87-.58-.7-.04-1.3.08-1.97.4-.5.3-.74.8-.7 1.36 0 .4.12.76.45 1.05.5.4 1 .65 1.6.82l2.1.66c.94.24 1.68.7 2.3 1.43.5.63.7 1.3.7 2.1 0 .62-.13 1.15-.38 1.72-.28.55-.6.95-1.1 1.32-.5.4-1 .66-1.6.84-.74.24-1.4.34-2.14.35zM471.6 120.67c-5.6 3.82-11.37 5.58-18.15 5.56-8.55.05-15.83-2.74-22.16-8.45-.5-.42 0-1 .48-.67 7.07 4.06 14.02 5.9 22.2 5.9 6.1-.03 11.28-1.08 16.93-3.46.83-.35 1.52.54.7 1.13z" stroke="#fff" stroke-opacity="0" fill="#fff"/><path d="M473.66 118.39c-.65-.83-4.17-.4-5.75-.2-.47 0-.53-.37-.1-.68 2.8-1.97 7.4-1.4 8-.73.6.66-.15 5.27-2.8 7.47-.38.34-.76.15-.6-.28.56-1.53 1.88-4.84 1.26-5.6z" stroke="#fff" stroke-opacity="0" fill="#fff"/><use xlink:href="#m" transform="matrix(1,0,0,1,496.4959883926475,103.1882145867915) translate(0 14.222222222222223)"/><use xlink:href="#n" transform="matrix(1,0,0,1,496.4959883926475,103.1882145867915) translate(45.333333333333336 14.222222222222223)"/><path d="M565.34 580c-18.45 0-33.42-14.97-33.42-33.4 0-18.46 14.97-33.43 33.42-33.43 18.44 0 33.4 14.97 33.4 33.42 0 18.43-14.96 33.4-33.4 33.4zm0-63.96c-16.9 0-30.54 13.64-30.54 30.55 0 16.9 13.63 30.53 30.54 30.53 16.9 0 30.54-13.64 30.54-30.54 0-16.92-13.63-30.56-30.54-30.56z" stroke="#fff" stroke-opacity="0" fill="#693cc5"/><path d="M581.33 566.66H576c-.8 0-1.43-.63-1.43-1.42v-27.58c-2.9-1.5-5.64-2.17-8.88-2.25-3.57.1-6.53.88-9.66 2.58v27.26c0 .8-.63 1.42-1.4 1.42h-5.3c-.8 0-1.42-.63-1.42-1.42v-31c0-.44.17-.8.5-1.07 5.07-4.2 10.72-6.12 17.27-5.96 6.2-.1 11.52 1.63 16.5 5.3.38.27.56.67.56 1.1v31.64c0 .8-.63 1.42-1.43 1.42zm-3.9-2.84h2.47v-29.5c-4.35-3-8.92-4.35-14.2-4.27-5.62-.16-10.46 1.42-14.92 4.8v28.97h2.44v-26.75c0-.55.27-1.02.76-1.26 3.76-2.12 7.4-3.15 11.7-3.23 3.94.12 7.3 1 10.77 2.84h.14c.5.25.83.73.83 1.32z" stroke="#fff" stroke-opacity="0" fill="#693cc5"/><use xlink:href="#o" transform="matrix(1,0,0,1,501.92316187770484,589.0000000000001) translate(33.40123456790123 14.222222222222223)"/><use xlink:href="#p" transform="matrix(1,0,0,1,501.92316187770484,589.0000000000001) translate(28.462962962962962 35.55555555555556)"/><path d="M740 360h120v120H740V360z" stroke="#fff" stroke-opacity="0" stroke-width="2" fill="#d86613"/><path d="M836.8 424.8h-8.02v-3.18h8.02v-38.44h-38.43v8.02h-3.2v-8.02c0-1.75 1.45-3.18 3.2-3.18h38.43c1.75 0 3.18 1.43 3.18 3.18v38.44c0 1.75-1.43 3.18-3.18 3.18zM801.6 460h-38.44c-1.74 0-3.18-1.43-3.18-3.18v-38.44c0-1.75 1.44-3.18 3.18-3.18h8.02v3.18h-8v38.44h38.42v-8.02h3.18v8.02c0 1.75-1.43 3.18-3.18 3.18z" stroke="#fff" stroke-opacity="0" stroke-width="2" fill="#fff"/><path d="M825.6 405.6v-3.2h-4.8c-.12-1.7-1.5-3.08-3.2-3.2v-4.8h-3.2v4.8h-4.77v-4.8h-3.23v4.8h-4.8v-4.8h-3.2v4.8h-4.8v-4.8h-3.17v4.8h-4.82v-4.8h-3.2v4.8c-1.7.12-3.08 1.5-3.2 3.2h-4.8v3.2h4.8v4.83h-4.8v3.17h4.8v4.8h-4.8v3.2h4.8v4.8h-4.8v3.23h4.8v4.76h-4.8v3.2h4.8c.12 1.7 1.5 3.08 3.2 3.2v4.8h3.2v-4.8h4.83v4.8h3.17v-4.8h4.8v4.8h3.2v-4.8h4.8v4.8h3.23v-4.8h4.76v4.8h3.2v-4.8c1.7-.12 3.08-1.5 3.2-3.2h4.8v-3.2h-4.8v-4.77h4.8v-3.23h-4.8v-4.8h4.8v-3.2h-4.8v-4.8h4.8v-3.17h-4.8v-4.82zm-8 31.7c0 .16-.14.3-.3.3h-34.6c-.16 0-.3-.14-.3-.3v-34.6c0-.16.14-.3.3-.3h34.6c.16 0 .3.14.3.3z" stroke="#fff" stroke-opacity="0" stroke-width="2" fill="#fff"/><use xlink:href="#q" transform="matrix(1,0,0,1,710,489) translate(37.05 14.4)"/><use xlink:href="#r" transform="matrix(1,0,0,1,710,489) translate(108 14.4)"/><path d="M1259.78 345.36h75.44c19.78 0 19.78 0 19.78 19.72v75.2c0 19.7 0 19.7-19.78 19.7h-75.44c-19.78 0-19.78 0-19.78-19.7v-75.2c0-19.72 0-19.72 19.78-19.72z" fill="#19486f"/><path d="M1259.78 340h75.44c19.78 0 19.78 0 19.78 19.7v75.2c0 19.72 0 19.72-19.78 19.72h-75.44c-19.78 0-19.78 0-19.78-19.7v-75.2c0-19.72 0-19.72 19.78-19.72z" fill="#2e73b8"/><path d="M1245.42 357.98h5.4c2.38-.22 4.5 1.5 4.73 3.9.03.37.03.68-.03 1.05.23 2.54-1.63 4.78-4.17 5.02-.3.02-.53.02-.82 0h-2.38v7.03h-2.73zm2.7 7.9h1.94c.17.03.32.03.5 0 1.42-.2 2.4-1.5 2.2-2.9 0-1.83-.73-2.94-2.9-2.94h-1.73zM1261.6 361.84c3.74 0 4.78 2.77 4.78 6.73 0 3.95-1.2 6.72-4.8 6.72-3.57 0-4.77-2.78-4.77-6.73 0-3.96 1.08-6.73 4.8-6.73zm0 11.57c1.87 0 2.16-1.56 2.16-4.8 0-2.85-.33-4.84-2.17-4.84-1.86 0-2.18 2-2.18 4.83-.02 3.27.32 4.8 2.17 4.8zM1273.97 365.9v-.3c0-1.03-.36-2-1.7-2-1.32 0-1.84.5-1.84 1.68 0 1.2.46 1.4 1.83 1.88l1.65.57c1.77.33 2.96 1.9 2.8 3.7 0 2.74-2 3.9-4.6 3.9-3.25 0-4.22-1.5-4.22-4v-.47h2.28v.4c0 1.5.5 2.3 2 2.3 1.46 0 2.16-.7 2.16-1.88.04-.88-.54-1.66-1.4-1.88l-2.18-.74c-1.73-.35-2.9-1.9-2.73-3.67 0-2.4 1.74-3.54 4.34-3.54 3.28 0 4.02 1.9 4.02 3.5v.57zM1277.7 362.16h1.76v-3.63h2.58v3.63h2.17v1.9h-2.16v7.64c0 1 .28 1.37 1.17 1.37h.94v1.9c-.75.16-1.4.23-2.17.2-1.73 0-2.6-.47-2.6-3.08v-8.04h-1.75zM1288 376.07v.05c.12.93.96 1.58 1.88 1.45h.25c1.18-.14 2.04-1.2 1.9-2.4v-2.15c-.53 1.12-1.63 1.8-2.9 1.75-3 0-3.83-2.94-3.83-6.5 0-2.8.44-6.48 4.07-6.48 1.3-.06 2.4.7 2.83 1.9v-1.58h2.42v12.18c0 3.1-1.34 5-4.8 5-3.8 0-4.33-2.18-4.33-3.3zm1.83-3.26c2 0 2.17-2.5 2.17-4.52 0-2-.26-4.32-2.06-4.32s-2.17 1.9-2.17 4.32c0 2.42.15 4.53 2.06 4.53zM1297 362.16h2.66v2c.37-1.4 1.56-2.32 3-2.34.22-.04.4-.04.63 0v2.62c-.4-.1-.7-.14-1.1-.16-1.17 0-2.58.53-2.58 2.9v7.66H1297zM1306.82 368.9v.8c0 1.7.22 3.9 2.17 3.9 1.94 0 2.05-2.16 2.05-2.86h2.43c.15 2.4-1.65 4.45-4.04 4.6h-.47c-2.17 0-4.7-.62-4.7-6.48 0-3.35.7-6.9 4.74-6.9 3.6 0 4.54 2.15 4.54 5.7V369zm4.12-1.74v-.7c0-1.62-.52-2.85-1.97-2.85-1.46 0-2.17 1.63-2.17 3.3v.26zM1318 369.72v.42c0 2.17.9 3.1 2.8 3.1.08.02.16.02.25.02 1.32-.03 2.37-1.15 2.33-2.48.1-1.5-.94-2.8-2.43-3l-1.87-.67c-2.2-.47-3.68-2.42-3.55-4.65-.1-2.58 1.92-4.76 4.5-4.85.3 0 .52 0 .8.04 4.33 0 4.8 2.7 4.8 4.5v.38h-2.7v-.38c0-1.54-.7-2.44-2.4-2.44-.15-.02-.28 0-.43 0-1.18.17-2.02 1.26-1.86 2.44 0 1.46.73 2.17 2.56 2.88l1.85.67c2.13.44 3.57 2.3 3.44 4.48 0 3.62-2.17 5.13-5.65 5.13-2.57.3-4.9-1.54-5.18-4.1-.05-.38-.05-.7 0-1.07v-.4zM1336.33 374.72c-.86.43-1.7.62-2.67.56-3.9 0-5.64-2.77-5.64-8.83 0-6.04 1.72-8.8 5.64-8.8 3.93 0 5.65 2.76 5.65 8.8.14 2.45-.28 4.54-1.35 6.72l1.74 1.85-1.63 1.45zm-1.43-4.47l1.13 1.13c.46-1.7.62-3.2.5-5 0-5.7-1.26-6.7-2.9-6.7-1.62 0-2.9 1-2.9 6.7 0 5.72 1.28 6.87 2.9 6.87.36 0 .66-.06 1-.17l-1.3-1.22zM1341.67 358h2.7v14.7h6.5v2.28h-9.2z" fill="#fff"/><use xlink:href="#s" transform="matrix(1,0,0,1,1240,460) translate(6.349999999999994 14.4)"/><use xlink:href="#t" transform="matrix(1,0,0,1,1240,460) translate(73.3 14.4)"/><use xlink:href="#u" transform="matrix(1,0,0,1,1240,460) translate(24.025 36)"/><path d="M649.02 494.95v-9.44l-2.53 1.2v-1.2l2.66-1.5h1.46v11.02zM655.27 494.95l3.6-9.7h-4.88v-1.32h6.48v1.2l-3.54 9.82zM662.72 484.76c.48-.35.93-.6 1.5-.78.48-.14.93-.2 1.45-.17.78-.04 1.48.23 2.03.8.54.6.78 1.33.73 2.15 0 .54-.1 1-.3 1.5-.33.72-.66 1.3-1.14 1.93-.55.77-1.47 1.96-2.78 3.53h4.6v1.34h-6.35v-1.2c1.14-1.4 2-2.52 2.62-3.4.5-.68.9-1.32 1.28-2.12.27-.5.4-1 .4-1.57 0-1.1-.47-1.7-1.36-1.7-1.02.1-1.86.42-2.68 1zM671.6 495.1c-.27.02-.52-.07-.72-.27-.2-.2-.3-.45-.3-.74 0-.56.4-1 .96-1.03h.07c.3 0 .54.08.74.3.2.2.3.44.3.72 0 .28-.1.53-.3.73-.2.2-.45.3-.73.28zM677.57 494.95v-9.44l-2.54 1.2v-1.2l2.67-1.5h1.47v11.02zM686.65 484.98c-.74-.04-1.4.3-1.78.95-.5.97-.7 1.9-.7 2.96.72-.44 1.42-.64 2.25-.64.84-.03 1.57.3 2.1.94.56.7.82 1.47.77 2.37.04.98-.25 1.86-.9 2.62-.63.67-1.44 1-2.38.95-1.07.1-2.04-.4-2.6-1.3-.7-1.3-.97-2.58-.87-4.06-.1-1.64.23-3.06 1.03-4.5.63-1 1.67-1.55 2.87-1.5.42.02.77.06 1.18.17.37.07.67.2 1.02.37v1.17c-.33-.14-.62-.24-.97-.32-.36-.1-.66-.16-1.03-.2zm-.67 4.55c-.67 0-1.23.15-1.8.46v.1c-.07 1.03.07 1.92.43 2.88.26.58.8.94 1.44.92 1.07 0 1.6-.75 1.6-2.23.05-.6-.1-1.1-.42-1.58-.3-.4-.75-.6-1.24-.57zM691.9 495.1c-.27.02-.5-.07-.72-.27-.2-.2-.3-.45-.28-.74 0-.57.45-1.03 1-1.03.58 0 1.03.46 1.03 1.02.02.28-.08.53-.28.73-.2.2-.45.3-.74.28zM697.96 495.16c-1.12.06-2.1-.5-2.64-1.46-.72-1.38-1-2.72-.9-4.26-.1-1.55.2-2.88.9-4.26.57-.93 1.54-1.43 2.64-1.36 1.1-.05 2.05.5 2.58 1.45.72 1.38 1 2.72.9 4.26.1 1.54-.18 2.87-.9 4.26-.55.92-1.5 1.42-2.58 1.36zm0-1.3c.66 0 1.2-.4 1.4-1.05.37-1.14.5-2.17.44-3.37.07-1.22-.07-2.25-.45-3.4-.14-.5-.5-.84-1-1-.76-.2-1.58.23-1.8 1-.38 1.16-.5 2.18-.45 3.4-.06 1.2.07 2.23.45 3.38.18.66.74 1.07 1.4 1.07zM703.98 495.1c-.28.02-.53-.07-.73-.27-.2-.2-.3-.45-.3-.74 0-.57.47-1.03 1.03-1.03.57 0 1.02.46 1.02 1.02.02.28-.08.53-.28.73-.2.2-.46.3-.74.28zM710.02 495.16c-1.1.05-2.06-.5-2.6-1.46-.7-1.38-1-2.72-.9-4.26-.1-1.55.2-2.87.9-4.26.57-.92 1.52-1.42 2.6-1.37 1.1-.03 2.06.5 2.6 1.47.7 1.38 1 2.72.9 4.26.1 1.54-.2 2.87-.9 4.26-.56.92-1.5 1.42-2.6 1.36zm0-1.3c.66 0 1.22-.4 1.4-1.05.38-1.14.52-2.17.45-3.37.07-1.22-.07-2.25-.45-3.4-.14-.48-.5-.84-1-.98-.77-.23-1.58.2-1.8.98-.37 1.15-.5 2.18-.45 3.4-.06 1.2.07 2.23.44 3.38.2.65.76 1.07 1.42 1.07zM649.02 521v-9.4l-2.53 1.2v-1.3l2.66-1.5h1.46v11zM655.27 521l3.6-9.7h-4.88V510h6.48v1.16l-3.54 9.84zM662.72 510.8c.5-.34.93-.57 1.5-.77.48-.18.92-.25 1.45-.23.78-.06 1.47.2 2.03.75.52.6.76 1.3.73 2.1 0 .53-.1 1-.3 1.5-.32.72-.66 1.3-1.14 1.93-.55.76-1.47 1.95-2.78 3.55h4.6v1.3h-6.35v-1.18c1.14-1.42 2-2.53 2.62-3.4.5-.67.9-1.27 1.28-2.02.27-.5.4-1 .4-1.56 0-1.1-.47-1.7-1.36-1.7-1.02.1-1.86.42-2.68 1.02zM671.6 521.12c-.54.02-1-.4-1-.95v-.07c-.02-.3.07-.54.28-.75.2-.2.45-.28.73-.27.3-.02.54.07.74.27.2.2.3.46.3.75 0 .28-.1.53-.3.73-.2.2-.45.3-.73.3zM677.57 521v-9.4l-2.54 1.2v-1.3l2.67-1.5h1.47v11zM686.65 511.04c-.74-.04-1.4.3-1.78.94-.5.98-.7 1.9-.68 3.02.7-.45 1.4-.65 2.22-.66.8-.05 1.53.26 2.06.88.58.7.83 1.47.78 2.37.05.98-.24 1.85-.88 2.6-.63.7-1.45 1.03-2.4.98-1.06.08-2-.4-2.58-1.3-.68-1.3-.95-2.55-.85-4.02-.1-1.65.23-3.07 1.03-4.5.6-1.05 1.65-1.62 2.85-1.57.42 0 .78.02 1.18.12.38.1.7.2 1.03.38v1.16c-.33-.14-.62-.24-.97-.3-.35-.1-.65-.12-1-.12zm-.68 4.55c-.66 0-1.2.14-1.8.43v.13c-.05 1.04.08 1.92.44 2.9.26.57.8.92 1.44.9 1.07 0 1.6-.74 1.6-2.25.04-.58-.1-1.08-.42-1.57-.32-.38-.75-.57-1.25-.54zM691.9 521.12c-.53 0-1-.4-1-.95v-.07c-.02-.3.08-.54.28-.75.43-.36 1.04-.36 1.47 0 .2.2.3.46.3.75 0 .54-.42 1-.97 1.02h-.07zM697.87 521v-9.4l-2.55 1.2v-1.3L698 510h1.46v11zM703.98 521.12c-.54 0-1-.4-1.02-.95v-.07c0-.3.1-.54.3-.75.42-.36 1.03-.36 1.46 0 .2.2.3.46.28.75.02.54-.4 1-.95 1.02h-.07zM710.02 521.22c-1.1.03-2.06-.5-2.6-1.48-.7-1.38-1-2.7-.9-4.25-.1-1.56.2-2.9.9-4.27.55-.95 1.5-1.5 2.6-1.44 1.1-.06 2.06.48 2.6 1.43.7 1.38.98 2.7.9 4.26.1 1.53-.2 2.87-.9 4.26-.54.96-1.5 1.5-2.6 1.46zm0-1.3c.66 0 1.2-.4 1.4-1.04.38-1.15.52-2.2.45-3.4.07-1.2-.07-2.24-.45-3.38-.14-.5-.5-.85-1-1-.77-.22-1.58.22-1.8 1-.37 1.15-.5 2.18-.45 3.4-.06 1.2.08 2.22.44 3.38.2.64.76 1.05 1.42 1.05zM649.02 548.62v-9.4l-2.53 1.2v-1.3l2.66-1.52h1.46v11.02zM655.27 548.62l3.6-9.7h-4.88v-1.32h6.48v1.2l-3.54 9.82zM662.72 538.43c.48-.34.93-.58 1.5-.78.48-.18.92-.26 1.45-.25.78-.06 1.47.2 2.03.75.53.63.78 1.34.73 2.16 0 .56-.1 1.03-.3 1.54-.33.7-.66 1.3-1.14 1.92-.55.77-1.47 1.94-2.78 3.53h4.6v1.32h-6.35v-1.2c1.14-1.42 2-2.53 2.62-3.38.5-.68.9-1.3 1.28-2.05.26-.52.38-1 .4-1.6 0-1.1-.47-1.7-1.36-1.7-1.02.12-1.86.43-2.68 1.04zM671.6 548.77c-.27.02-.52-.07-.72-.27-.2-.2-.3-.46-.3-.75 0-.54.4-1 .96-1h.07c.3-.03.54.07.74.28.2.2.3.44.3.73 0 .28-.1.53-.3.74-.2.2-.45.3-.73.27zM677.57 548.62v-9.4l-2.54 1.2v-1.3l2.67-1.52h1.47v11.02zM686.65 538.65c-.74-.03-1.4.3-1.78.95-.5.98-.7 1.92-.68 3.02.7-.44 1.4-.64 2.22-.65.8-.02 1.52.27 2.06.9.57.68.82 1.47.78 2.36.04 1-.24 1.86-.88 2.63-.64.67-1.46 1-2.4.96-1.06.08-2-.4-2.58-1.3-.68-1.3-.95-2.58-.85-4.05-.1-1.65.23-3.07 1.03-4.5.6-1.05 1.65-1.6 2.85-1.58.42 0 .78.04 1.18.13.38.1.7.22 1.03.4v1.14c-.34-.13-.62-.23-.97-.3-.35-.1-.65-.12-1-.12zm-.68 4.5c-.66.02-1.2.16-1.8.45v.14c-.05 1.03.08 1.9.44 2.88.26.58.8.93 1.44.92 1.08 0 1.6-.76 1.6-2.24.05-.6-.1-1.1-.42-1.58-.3-.4-.75-.6-1.25-.56zM691.9 548.77c-.27.02-.5-.07-.72-.27-.2-.2-.3-.46-.3-.74 0-.57.47-1.02 1.03-1.02.58 0 1.04.45 1.04 1.02 0 .28-.1.53-.3.74-.2.2-.44.3-.73.27zM695.1 538.43c.48-.34.92-.58 1.48-.78.5-.18.94-.26 1.46-.25.8-.06 1.48.2 2.03.75.53.63.78 1.34.73 2.16 0 .56-.1 1.03-.3 1.54-.32.7-.66 1.3-1.13 1.92-.54.77-1.47 1.94-2.78 3.53h4.6v1.32h-6.36v-1.2c1.14-1.42 2-2.53 2.63-3.38.5-.68.87-1.3 1.26-2.05.26-.52.38-1 .38-1.6 0-1.1-.44-1.7-1.35-1.7-1 .12-1.85.43-2.67 1.04zM703.98 548.77c-.28.02-.53-.07-.73-.27-.2-.2-.3-.46-.3-.74 0-.57.47-1.02 1.03-1.02.57 0 1.02.45 1.02 1.02 0 .28-.08.53-.28.74-.2.2-.46.3-.74.27zM710.02 548.83c-1.1.03-2.05-.5-2.6-1.46-.7-1.37-.98-2.7-.9-4.2-.1-1.56.2-2.9.9-4.27.55-.96 1.5-1.5 2.6-1.46 1.1-.03 2.06.5 2.6 1.46.7 1.38 1 2.7.9 4.26.1 1.55-.2 2.88-.9 4.25-.56.96-1.5 1.47-2.6 1.43zm0-1.3c.66 0 1.22-.4 1.4-1.05.38-1.15.52-2.18.45-3.4.07-1.2-.07-2.23-.45-3.38-.14-.5-.5-.85-1-.98-.77-.23-1.58.2-1.8.98-.38 1.15-.5 2.18-.45 3.4-.06 1.2.08 2.23.44 3.38.2.64.76 1.06 1.42 1.06z" stroke="#fff" stroke-opacity="0" fill="#693cc5"/><path d="M718.32 501.04h-76.64c-.88 0-1.68-.77-1.68-1.7v-20.6c0-.94.8-1.7 1.68-1.7h76.64c.88 0 1.68.76 1.68 1.7v20.6c0 .93-.8 1.7-1.68 1.7zm-74.88-3.4h73.12v-17.22h-73.12zM718.32 528.05h-76.64c-.88 0-1.68-.77-1.68-1.7V505.7c0-.92.8-1.7 1.68-1.7h76.64c.88 0 1.68.78 1.68 1.7v20.64c0 .94-.8 1.7-1.68 1.7zm-74.88-3.4h73.12V507.4h-73.12zM718.32 555.03h-76.64c-.88 0-1.68-.77-1.68-1.7v-20.6c0-.94.8-1.7 1.68-1.7h76.64c.88 0 1.68.76 1.68 1.7v20.6c0 .93-.8 1.7-1.68 1.7zm-74.88-3.4h73.12V534.4h-73.12z" stroke="#fff" stroke-opacity="0" fill="#693cc5"/><path d="M641.82 479.24h76.4v73.8h-76.4v-73.8z" stroke="#fff" stroke-opacity="0" stroke-width=".4" fill="#fff" fill-opacity="0"/><use xlink:href="#v" transform="matrix(1,0,0,1,610,564.0292978285415) translate(24.049999999999997 14.4)"/><use xlink:href="#w" transform="matrix(1,0,0,1,610,564.0292978285415) translate(77 14.4)"/><path d="M1029.02 475.37v-9.45l-2.54 1.2v-1.2l2.68-1.5h1.46v11zM1035.27 475.37l3.6-9.7h-4.88v-1.32h6.48v1.2l-3.54 9.82zM1042.72 465.17c.48-.34.93-.58 1.5-.77.48-.15.93-.2 1.45-.17.78-.06 1.48.2 2.02.77.54.62.78 1.34.73 2.16 0 .54-.1 1-.3 1.5-.33.73-.67 1.3-1.14 1.94-.55.76-1.47 1.95-2.78 3.53h4.6v1.32h-6.35v-1.2c1.14-1.4 2-2.52 2.62-3.38.5-.7.9-1.34 1.28-2.13.27-.5.4-1 .4-1.58 0-1.1-.47-1.7-1.36-1.7-1.02.1-1.86.42-2.68 1.02zM1051.6 475.52c-.27.02-.52-.07-.72-.27-.2-.2-.3-.46-.3-.75 0-.54.4-1 .96-1 .02-.02.04-.02.07 0 .3-.03.54.07.74.27.2.2.3.45.3.73 0 .3-.1.54-.3.75-.2.2-.45.3-.73.27zM1057.57 475.37v-9.45l-2.54 1.2v-1.2l2.67-1.5h1.47v11zM1066.65 465.4c-.74-.04-1.4.3-1.78.95-.5.96-.7 1.88-.7 2.96.72-.42 1.42-.63 2.25-.63.84-.03 1.57.3 2.1.95.56.7.82 1.46.77 2.36.04 1-.25 1.86-.9 2.62-.63.7-1.44 1-2.38.97-1.07.1-2.04-.4-2.6-1.3-.7-1.3-.97-2.6-.87-4.06-.1-1.63.23-3.05 1.03-4.48.63-1 1.67-1.56 2.87-1.5.42 0 .77.06 1.18.16.37.08.67.2 1.02.38v1.17c-.33-.15-.62-.25-.97-.33-.36-.1-.66-.16-1.03-.2zm-.67 4.55c-.67 0-1.23.14-1.8.45v.12c-.07 1.03.06 1.9.43 2.88.26.58.8.93 1.45.92 1.06 0 1.6-.75 1.6-2.24.04-.6-.1-1.1-.43-1.58-.3-.4-.75-.6-1.24-.55zM1071.9 475.52c-.27.02-.52-.07-.72-.27-.2-.2-.3-.46-.3-.75 0-.56.47-1 1.03-1 .58 0 1.03.44 1.03 1 .02.3-.08.54-.28.75-.2.2-.45.3-.74.27zM1077.96 475.58c-1.12.05-2.1-.5-2.64-1.47-.7-1.36-1-2.7-.9-4.25-.1-1.54.18-2.87.9-4.25.57-.94 1.54-1.44 2.64-1.37 1.1-.04 2.05.5 2.6 1.46.7 1.36.98 2.7.9 4.24.08 1.55-.2 2.88-.9 4.26-.57.93-1.52 1.43-2.6 1.38zm0-1.3c.66 0 1.2-.42 1.4-1.05.37-1.15.5-2.18.44-3.4.07-1.2-.07-2.24-.45-3.38-.14-.5-.5-.84-1-1-.76-.22-1.58.22-1.8 1-.38 1.16-.5 2.18-.45 3.4-.06 1.2.07 2.23.45 3.38.18.64.74 1.05 1.4 1.05zM1083.98 475.52c-.28.02-.53-.07-.73-.27-.2-.2-.3-.46-.3-.75 0-.56.47-1 1.03-1 .57 0 1.02.44 1.02 1 .02.3-.08.54-.3.75-.2.2-.43.3-.72.27zM1090.02 475.58c-1.1.04-2.06-.5-2.6-1.47-.7-1.36-1-2.7-.9-4.25-.1-1.54.2-2.87.9-4.25.57-.92 1.52-1.42 2.6-1.38 1.1-.03 2.06.5 2.6 1.47.7 1.36 1 2.7.9 4.25.1 1.54-.2 2.87-.9 4.25-.56.93-1.5 1.43-2.6 1.38zm0-1.3c.66 0 1.22-.42 1.4-1.05.38-1.15.52-2.18.45-3.4.07-1.2-.07-2.23-.45-3.38-.14-.5-.5-.84-1-1-.77-.22-1.58.23-1.8 1-.37 1.15-.5 2.18-.45 3.4-.07 1.2.07 2.23.44 3.38.2.63.76 1.05 1.42 1.05zM1029.02 501.4v-9.38l-2.54 1.2v-1.3l2.68-1.5h1.46v11zM1035.27 501.4l3.6-9.67h-4.88v-1.32h6.48v1.17l-3.54 9.84zM1042.72 491.22c.5-.34.93-.58 1.5-.78.48-.17.92-.24 1.45-.23.78-.05 1.47.2 2.02.77.52.6.76 1.3.73 2.08 0 .55-.1 1-.3 1.5-.32.73-.66 1.3-1.14 1.95-.55.75-1.47 1.95-2.78 3.54h4.6v1.3h-6.35v-1.18c1.14-1.4 2-2.53 2.62-3.4.5-.66.9-1.27 1.28-2 .27-.5.4-1 .4-1.57 0-1.12-.47-1.7-1.36-1.7-1.02.1-1.86.4-2.68 1zM1051.6 501.53c-.54.02-1-.4-1-.95v-.07c-.02-.27.07-.52.28-.73.2-.2.45-.3.73-.27.3-.02.54.07.74.27.2.2.3.46.3.74 0 .3-.1.54-.3.74-.2.2-.45.3-.73.3zM1057.57 501.4v-9.38l-2.54 1.2v-1.3l2.67-1.5h1.47v11zM1066.65 491.46c-.74-.05-1.4.3-1.78.93-.5.97-.7 1.9-.68 3 .7-.43 1.4-.64 2.22-.65.8-.04 1.53.26 2.06.88.58.7.83 1.47.78 2.37.05 1-.24 1.86-.88 2.62-.64.7-1.45 1.02-2.4.98-1.06.08-2-.4-2.58-1.3-.68-1.3-.95-2.56-.85-4.03-.1-1.64.23-3.07 1.03-4.5.6-1.04 1.65-1.6 2.85-1.57.42 0 .78.04 1.18.14.38.1.7.2 1.03.38v1.16c-.33-.15-.62-.24-.97-.3-.35-.1-.65-.12-1-.12zm-.68 4.55c-.66.02-1.2.16-1.8.44v.14c-.05 1.04.08 1.9.44 2.88.26.6.8.94 1.44.92 1.07 0 1.6-.75 1.6-2.25.04-.6-.1-1.1-.42-1.6-.32-.36-.75-.56-1.25-.52zM1071.9 501.53c-.53.02-1-.4-1-.95v-.07c-.02-.28.08-.52.28-.73.43-.37 1.04-.37 1.47 0 .2.2.3.45.3.74 0 .56-.42 1-.97 1.03h-.07zM1077.87 501.4v-9.38l-2.55 1.2v-1.3l2.67-1.5h1.45v11zM1083.98 501.53c-.54.02-1-.4-1.02-.95v-.07c0-.28.1-.52.3-.73.42-.37 1.03-.37 1.45 0 .22.2.32.45.3.74.02.56-.4 1-.95 1.03h-.07zM1090.02 501.63c-1.1.04-2.06-.5-2.6-1.47-.7-1.38-1-2.7-.9-4.25-.1-1.55.2-2.87.9-4.26.54-.95 1.5-1.48 2.6-1.44 1.1-.04 2.06.5 2.6 1.44.7 1.4.98 2.7.9 4.27.1 1.55-.2 2.9-.9 4.27-.54.96-1.5 1.5-2.6 1.46zm0-1.3c.66 0 1.2-.4 1.4-1.04.38-1.15.52-2.2.45-3.4.07-1.2-.07-2.25-.45-3.4-.14-.48-.5-.83-1-.97-.77-.23-1.58.2-1.8.98-.37 1.17-.5 2.2-.45 3.4-.06 1.2.08 2.24.44 3.4.2.63.76 1.04 1.42 1.04zM1029.02 529.03v-9.4l-2.54 1.2v-1.3l2.68-1.52h1.46v11.03zM1035.27 529.03l3.6-9.7h-4.88v-1.32h6.48v1.2l-3.54 9.83zM1042.72 518.85c.48-.35.93-.6 1.5-.8.48-.17.92-.25 1.45-.23.78-.06 1.47.2 2.02.75.53.63.78 1.33.73 2.15 0 .55-.1 1.03-.3 1.53-.33.72-.67 1.3-1.14 1.92-.55.78-1.47 1.95-2.78 3.54h4.6v1.33h-6.35v-1.2c1.14-1.4 2-2.52 2.62-3.38.5-.67.9-1.3 1.28-2.04.26-.5.38-1 .4-1.57 0-1.1-.47-1.7-1.36-1.7-1.02.1-1.86.4-2.68 1.02zM1051.6 529.2c-.27 0-.52-.1-.72-.28-.2-.2-.3-.46-.3-.75 0-.54.4-1 .96-1.02h.07c.3 0 .54.1.74.3.2.2.3.44.3.72 0 .3-.1.54-.3.75-.2.2-.45.3-.73.27zM1057.57 529.03v-9.4l-2.54 1.2v-1.3l2.67-1.52h1.47v11.03zM1066.65 519.07c-.74-.04-1.4.3-1.78.94-.5 1-.7 1.94-.68 3.03.7-.43 1.4-.64 2.22-.65.8-.02 1.52.28 2.06.9.57.68.83 1.47.78 2.36.05 1-.24 1.87-.88 2.63-.64.68-1.46 1-2.4.96-1.06.08-2-.4-2.58-1.3-.68-1.3-.95-2.57-.85-4.05-.1-1.65.23-3.06 1.03-4.5.6-1.05 1.65-1.6 2.85-1.57.42 0 .77.05 1.18.15.38.1.7.2 1.03.38v1.16c-.34-.15-.62-.24-.97-.32-.35-.08-.65-.1-1-.1zm-.68 4.5c-.66 0-1.2.15-1.8.45v.14c-.06 1.02.08 1.9.44 2.88.26.57.8.92 1.44.9 1.08 0 1.6-.74 1.6-2.23.05-.57-.1-1.1-.42-1.57-.3-.4-.75-.6-1.25-.56zM1071.9 529.2c-.27 0-.52-.1-.72-.28-.2-.2-.3-.46-.3-.75 0-.56.47-1.02 1.03-1.02.58 0 1.04.46 1.04 1.02 0 .3-.1.54-.3.75-.2.2-.44.28-.73.27zM1075.1 518.85c.48-.35.92-.6 1.48-.8.5-.17.94-.25 1.47-.23.78-.06 1.47.2 2.02.75.53.63.78 1.33.73 2.15 0 .55-.1 1.03-.3 1.53-.32.72-.66 1.3-1.13 1.92-.54.78-1.46 1.95-2.78 3.54h4.6v1.33h-6.36v-1.2c1.14-1.4 2-2.52 2.63-3.38.5-.67.87-1.3 1.26-2.04.26-.5.38-1 .38-1.57 0-1.1-.44-1.7-1.35-1.7-1 .1-1.85.4-2.67 1.02zM1083.98 529.2c-.28 0-.53-.1-.73-.28-.2-.2-.3-.46-.3-.75 0-.56.47-1.02 1.03-1.02.57 0 1.03.46 1.03 1.02.02.3-.08.54-.3.75-.2.2-.43.28-.72.27zM1090.02 529.24c-1.1.04-2.06-.5-2.6-1.46-.7-1.36-.98-2.68-.9-4.2-.1-1.56.2-2.9.9-4.26.54-.96 1.5-1.5 2.6-1.46 1.1-.04 2.06.5 2.6 1.46.7 1.37 1 2.7.9 4.25.1 1.55-.2 2.88-.9 4.26-.56.94-1.5 1.46-2.6 1.4zm0-1.28c.66-.02 1.22-.43 1.4-1.06.38-1.15.52-2.2.45-3.4.07-1.2-.07-2.24-.45-3.4-.14-.48-.5-.83-1-.97-.77-.22-1.58.2-1.8.98-.38 1.16-.5 2.2-.45 3.4-.07 1.2.08 2.25.44 3.4.2.63.76 1.06 1.42 1.06z" stroke="#fff" stroke-opacity="0" fill="#693cc5"/><path d="M1098.32 481.45h-76.64c-.88 0-1.68-.76-1.68-1.7v-20.6c0-.94.8-1.7 1.68-1.7h76.64c.88 0 1.68.76 1.68 1.7v20.6c0 .94-.8 1.7-1.68 1.7zm-74.88-3.38h73.12v-17.24h-73.12zM1098.32 508.47h-76.64c-.88 0-1.68-.77-1.68-1.7v-20.64c0-.94.8-1.7 1.68-1.7h76.64c.88 0 1.68.76 1.68 1.7v20.63c0 .94-.8 1.7-1.68 1.7zm-74.88-3.4h73.12v-17.26h-73.12zM1098.32 535.44h-76.64c-.88 0-1.68-.76-1.68-1.7v-20.6c0-.94.8-1.7 1.68-1.7h76.64c.88 0 1.68.76 1.68 1.7v20.6c0 .94-.8 1.7-1.68 1.7zm-74.88-3.38h73.12v-17.24h-73.12z" stroke="#fff" stroke-opacity="0" fill="#693cc5"/><path d="M1021.82 459.65h76.4v73.8h-76.4v-73.8z" stroke="#fff" stroke-opacity="0" stroke-width=".4" fill="#fff" fill-opacity="0"/><use xlink:href="#v" transform="matrix(1,0,0,1,990,544.4444804301868) translate(24.049999999999997 14.4)"/><use xlink:href="#w" transform="matrix(1,0,0,1,990,544.4444804301868) translate(77 14.4)"/><path d="M260 594c-.36-13.4-10.2-24.2-23.4-26-.84-18.58-16.44-33.15-35.04-32.56-15.12-.25-27.96 8.6-33.24 22.84-15.96 1.88-27.84 14.92-28.32 30.94.72 18.07 15.84 32.04 33.84 31.45.96 0 1.92-.1 2.88-.17h54.72c.6 0 .96-.1 1.44-.17 14.64-.1 26.52-11.68 27.12-26.34z" stroke="#000" stroke-opacity="0" fill="url(#x)"/><path d="M223.86 589.37c3.87-3.87 3.87-10.16 0-14.03L206.9 558.3c-.04 0-.04 0-.04-.1-3.8-3.77-10.1-3.77-13.9.1l-16.94 17.04c-3.87 3.87-3.87 10.16 0 14.03l14.1 14.2c.54.52.8 1.2.8 1.98v26.34c0 .94.33 1.7.97 2.4l6.43 6.46h.05c.86.94 2.26.94 3.12 0l6.27-6.3v-.07l3.65-3.63c.54-.5.54-1.38 0-1.9l-2.63-2.66c-.55-.5-.55-1.37 0-1.97l2.62-2.67c.54-.5.54-1.3 0-1.8l-2.63-2.67c-.55-.53-.55-1.48 0-2l2.62-2.66c.54-.52.54-1.3 0-1.8l-3.65-3.7v-1.4zm-23.92-26.94c3.1-.1 5.63 2.5 5.63 5.6 0 3.1-2.47 5.6-5.58 5.6-3.12 0-5.64-2.5-5.64-5.6 0-3.1 2.47-5.6 5.58-5.6z" stroke="#000" stroke-opacity="0" fill="url(#y)"/><path d="M195.56 632.5c.26.26.57.38.92.36.67-.05 1.18-.6 1.14-1.27v-21.45c0-.43-.2-.8-.55-1.06-.22-.15-.45-.2-.7-.2-.67.03-1.2.6-1.17 1.25v21.44c0 .35.1.66.36.9zM187.95 581.02h24.94c.83 0 1.5.68 1.5 1.5v.3c0 .84-.67 1.5-1.5 1.5h-24.95c-.84 0-1.5-.66-1.5-1.5v-.28c0-.84.66-1.52 1.5-1.52zM187.95 586.43h24.94c.83 0 1.5.68 1.5 1.5v.3c0 .83-.67 1.5-1.5 1.5h-24.95c-.84 0-1.5-.67-1.5-1.5v-.28c0-.84.66-1.52 1.5-1.52z" stroke="#000" stroke-opacity="0" fill="#0078d4" fill-opacity=".75"/><use xlink:href="#z" transform="matrix(1,0,0,1,110,650.4444804301868) translate(53.525 14.4)"/><use xlink:href="#A" transform="matrix(1,0,0,1,110,650.4444804301868) translate(95.475 14.4)"/><path d="M273.75 588.44H383.6a12 12 0 0 0 12-12v-17.86a12 12 0 0 1 12-12h107.94" stroke="#333" fill="none"/><path d="M260.26 588.44l13-7.5v15zM530.3 546.6l-14.26 4.62v-9.27z" stroke="#333" fill="#333"/><path d="M613.24 546.6a6.13 6.13 0 0 0 6.14-6.15v-20.18a4.24 4.24 0 0 1 4.24-4.24" stroke="#333" fill="none"/><path d="M599.75 546.6l13-7.5v15zM638.38 516.03l-14.26 4.63v-9.27z" stroke="#333" fill="#333"/><path d="M874.5 420H928a12 12 0 0 1 12 12v52.44a12 12 0 0 0 12 12h51.62" stroke="#333" fill="none"/><path d="M861 420l13-7.5v15zM1018.38 496.44l-14.26 4.64v-9.27z" stroke="#333" fill="#333"/><path d="M680 462.54v-33.5a12 12 0 0 1 12-12h31.62" stroke="#333" fill="none"/><path d="M680 476.03l-7.5-13h15zM738.38 417.03l-14.26 4.64v-9.28z" stroke="#333" fill="#333"/><path d="M1225.5 404.34H1072a12 12 0 0 0-12 12v24.72" stroke="#333" fill="none"/><path d="M1239 404.34l-13 7.5v-15zM1060 455.83l-4.63-14.27h9.27z" stroke="#333" fill="#333"/><defs><path fill="#666" d="M185-48c-13 30-37 53-82 52C43 2 14-33 14-96s30-98 90-98c62 0 83 45 84 108H66c0 31 8 55 39 56 18 0 30-7 34-22zm-45-69c5-46-57-63-70-21-2 6-4 13-4 21h74" id="B"/><path fill="#666" d="M85 4C-2 5 27-109 22-190h50c7 57-23 150 33 157 60-5 35-97 40-157h50l1 190h-47c-2-12 1-28-3-38-12 25-28 42-61 42" id="C"/><path fill="#666" d="M14-72v-43h91v43H14" id="D"/><path fill="#666" d="M231 0h-52l-39-155L100 0H48L-1-190h46L77-45c9-52 24-97 36-145h53l37 145 32-145h46" id="E"/><path fill="#666" d="M137-138c1-29-70-34-71-4 15 46 118 7 119 86 1 83-164 76-172 9l43-7c4 19 20 25 44 25 33 8 57-30 24-41C81-84 22-81 20-136c-2-80 154-74 161-7" id="F"/><path fill="#666" d="M115-3C79 11 28 4 28-45v-112H4v-33h27l15-45h31v45h36v33H77v99c-1 23 16 31 38 25v30" id="G"/><path fill="#666" d="M182-182c0 78-84 86-111 141h115V0H12c-6-101 99-100 120-180 1-22-12-31-33-32-23 0-32 14-35 34l-49-3c5-45 32-70 84-70 51 0 83 22 83 69" id="H"/><g id="a"><use transform="matrix(0.04938271604938272,0,0,0.04938271604938272,0,0)" xlink:href="#B"/><use transform="matrix(0.04938271604938272,0,0,0.04938271604938272,9.876543209876544,0)" xlink:href="#C"/><use transform="matrix(0.04938271604938272,0,0,0.04938271604938272,20.69135802469136,0)" xlink:href="#D"/><use transform="matrix(0.04938271604938272,0,0,0.04938271604938272,26.567901234567902,0)" xlink:href="#E"/><use transform="matrix(0.04938271604938272,0,0,0.04938271604938272,40.39506172839506,0)" xlink:href="#B"/><use transform="matrix(0.04938271604938272,0,0,0.04938271604938272,50.27160493827161,0)" xlink:href="#F"/><use transform="matrix(0.04938271604938272,0,0,0.04938271604938272,60.14814814814815,0)" xlink:href="#G"/><use transform="matrix(0.04938271604938272,0,0,0.04938271604938272,66.0246913580247,0)" xlink:href="#D"/><use transform="matrix(0.04938271604938272,0,0,0.04938271604938272,71.90123456790124,0)" xlink:href="#H"/></g><path fill="#666" d="M67-93c0 74 22 123 53 168H70C40 30 18-18 18-93s22-123 52-168h50c-32 44-53 94-53 168" id="I"/><path fill="#666" d="M24 0v-248h52v208h133V0H24" id="J"/><path fill="#666" d="M110-194c64 0 96 36 96 99 0 64-35 99-97 99-61 0-95-36-95-99 0-62 34-99 96-99zm-1 164c35 0 45-28 45-65 0-40-10-65-43-65-34 0-45 26-45 65 0 36 10 65 43 65" id="K"/><path fill="#666" d="M135-194c87-1 58 113 63 194h-50c-7-57 23-157-34-157-59 0-34 97-39 157H25l-1-190h47c2 12-1 28 3 38 12-26 28-41 61-42" id="L"/><path fill="#666" d="M88-194c31-1 46 15 58 34l-1-101h50l1 261h-48c-2-10 0-23-3-31C134-8 116 4 84 4 32 4 16-41 15-95c0-56 19-97 73-99zm17 164c33 0 40-30 41-66 1-37-9-64-41-64s-38 30-39 65c0 43 13 65 39 65" id="M"/><path fill="#666" d="M102-93c0 74-22 123-52 168H0C30 29 54-18 53-93c0-74-22-123-53-168h50c30 45 52 94 52 168" id="N"/><g id="b"><use transform="matrix(0.04938271604938272,0,0,0.04938271604938272,0,0)" xlink:href="#I"/><use transform="matrix(0.04938271604938272,0,0,0.04938271604938272,5.8765432098765435,0)" xlink:href="#J"/><use transform="matrix(0.04938271604938272,0,0,0.04938271604938272,16.691358024691358,0)" xlink:href="#K"/><use transform="matrix(0.04938271604938272,0,0,0.04938271604938272,27.50617283950617,0)" xlink:href="#L"/><use transform="matrix(0.04938271604938272,0,0,0.04938271604938272,38.32098765432099,0)" xlink:href="#M"/><use transform="matrix(0.04938271604938272,0,0,0.04938271604938272,49.135802469135804,0)" xlink:href="#K"/><use transform="matrix(0.04938271604938272,0,0,0.04938271604938272,59.95061728395062,0)" xlink:href="#L"/><use transform="matrix(0.04938271604938272,0,0,0.04938271604938272,70.76543209876543,0)" xlink:href="#N"/></g><path fill="#248814" d="M30-248c87 1 191-15 191 75 0 78-77 80-158 76V0H30v-248zm33 125c57 0 124 11 124-50 0-59-68-47-124-48v98" id="O"/><path fill="#248814" d="M84 4C-5 8 30-112 23-190h32v120c0 31 7 50 39 49 72-2 45-101 50-169h31l1 190h-30c-1-10 1-25-2-33-11 22-28 36-60 37" id="P"/><path fill="#248814" d="M115-194c53 0 69 39 70 98 0 66-23 100-70 100C84 3 66-7 56-30L54 0H23l1-261h32v101c10-23 28-34 59-34zm-8 174c40 0 45-34 45-75 0-40-5-75-45-74-42 0-51 32-51 76 0 43 10 73 51 73" id="Q"/><path fill="#248814" d="M24 0v-261h32V0H24" id="R"/><path fill="#248814" d="M24-231v-30h32v30H24zM24 0v-190h32V0H24" id="S"/><path fill="#248814" d="M96-169c-40 0-48 33-48 73s9 75 48 75c24 0 41-14 43-38l32 2c-6 37-31 61-74 61-59 0-76-41-82-99-10-93 101-131 147-64 4 7 5 14 7 22l-32 3c-4-21-16-35-41-35" id="T"/><g id="c"><use transform="matrix(0.04938271604938272,0,0,0.04938271604938272,0,0)" xlink:href="#O"/><use transform="matrix(0.04938271604938272,0,0,0.04938271604938272,11.851851851851853,0)" xlink:href="#P"/><use transform="matrix(0.04938271604938272,0,0,0.04938271604938272,21.7283950617284,0)" xlink:href="#Q"/><use transform="matrix(0.04938271604938272,0,0,0.04938271604938272,31.60493827160494,0)" xlink:href="#R"/><use transform="matrix(0.04938271604938272,0,0,0.04938271604938272,35.50617283950618,0)" xlink:href="#S"/><use transform="matrix(0.04938271604938272,0,0,0.04938271604938272,39.40740740740741,0)" xlink:href="#T"/></g><path fill="#248814" d="M185-189c-5-48-123-54-124 2 14 75 158 14 163 119 3 78-121 87-175 55-17-10-28-26-33-46l33-7c5 56 141 63 141-1 0-78-155-14-162-118-5-82 145-84 179-34 5 7 8 16 11 25" id="U"/><path fill="#248814" d="M117-194c89-4 53 116 60 194h-32v-121c0-31-8-49-39-48C34-167 62-67 57 0H25l-1-190h30c1 10-1 24 2 32 11-22 29-35 61-36" id="V"/><path fill="#248814" d="M100-194c63 0 86 42 84 106H49c0 40 14 67 53 68 26 1 43-12 49-29l28 8c-11 28-37 45-77 45C44 4 14-33 15-96c1-61 26-98 85-98zm52 81c6-60-76-77-97-28-3 7-6 17-6 28h103" id="W"/><path fill="#248814" d="M59-47c-2 24 18 29 38 22v24C64 9 27 4 27-40v-127H5v-23h24l9-43h21v43h35v23H59v120" id="X"/><g id="d"><use transform="matrix(0.04938271604938272,0,0,0.04938271604938272,0,0)" xlink:href="#U"/><use transform="matrix(0.04938271604938272,0,0,0.04938271604938272,11.851851851851853,0)" xlink:href="#P"/><use transform="matrix(0.04938271604938272,0,0,0.04938271604938272,21.7283950617284,0)" xlink:href="#Q"/><use transform="matrix(0.04938271604938272,0,0,0.04938271604938272,31.60493827160494,0)" xlink:href="#V"/><use transform="matrix(0.04938271604938272,0,0,0.04938271604938272,41.48148148148149,0)" xlink:href="#W"/><use transform="matrix(0.04938271604938272,0,0,0.04938271604938272,51.35802469135803,0)" xlink:href="#X"/></g><path fill="#248814" d="M27 0v-27h64v-190l-56 39v-29l58-41h29v221h61V0H27" id="Y"/><use transform="matrix(0.04938271604938272,0,0,0.04938271604938272,0,0)" xlink:href="#Y" id="e"/><path fill="#147eba" d="M30-248c87 1 191-15 191 75 0 78-77 80-158 76V0H30v-248zm33 125c57 0 124 11 124-50 0-59-68-47-124-48v98" id="Z"/><path fill="#147eba" d="M114-163C36-179 61-72 57 0H25l-1-190h30c1 12-1 29 2 39 6-27 23-49 58-41v29" id="aa"/><path fill="#147eba" d="M24-231v-30h32v30H24zM24 0v-190h32V0H24" id="ab"/><path fill="#147eba" d="M108 0H70L1-190h34L89-25l56-165h34" id="ac"/><path fill="#147eba" d="M141-36C126-15 110 5 73 4 37 3 15-17 15-53c-1-64 63-63 125-63 3-35-9-54-41-54-24 1-41 7-42 31l-33-3c5-37 33-52 76-52 45 0 72 20 72 64v82c-1 20 7 32 28 27v20c-31 9-61-2-59-35zM48-53c0 20 12 33 32 33 41-3 63-29 60-74-43 2-92-5-92 41" id="ad"/><path fill="#147eba" d="M59-47c-2 24 18 29 38 22v24C64 9 27 4 27-40v-127H5v-23h24l9-43h21v43h35v23H59v120" id="ae"/><path fill="#147eba" d="M100-194c63 0 86 42 84 106H49c0 40 14 67 53 68 26 1 43-12 49-29l28 8c-11 28-37 45-77 45C44 4 14-33 15-96c1-61 26-98 85-98zm52 81c6-60-76-77-97-28-3 7-6 17-6 28h103" id="af"/><g id="f"><use transform="matrix(0.04938271604938272,0,0,0.04938271604938272,0,0)" xlink:href="#Z"/><use transform="matrix(0.04938271604938272,0,0,0.04938271604938272,11.851851851851853,0)" xlink:href="#aa"/><use transform="matrix(0.04938271604938272,0,0,0.04938271604938272,17.728395061728396,0)" xlink:href="#ab"/><use transform="matrix(0.04938271604938272,0,0,0.04938271604938272,21.62962962962963,0)" xlink:href="#ac"/><use transform="matrix(0.04938271604938272,0,0,0.04938271604938272,30.518518518518523,0)" xlink:href="#ad"/><use transform="matrix(0.04938271604938272,0,0,0.04938271604938272,40.39506172839506,0)" xlink:href="#ae"/><use transform="matrix(0.04938271604938272,0,0,0.04938271604938272,45.333333333333336,0)" xlink:href="#af"/></g><path fill="#147eba" d="M185-189c-5-48-123-54-124 2 14 75 158 14 163 119 3 78-121 87-175 55-17-10-28-26-33-46l33-7c5 56 141 63 141-1 0-78-155-14-162-118-5-82 145-84 179-34 5 7 8 16 11 25" id="ag"/><path fill="#147eba" d="M84 4C-5 8 30-112 23-190h32v120c0 31 7 50 39 49 72-2 45-101 50-169h31l1 190h-30c-1-10 1-25-2-33-11 22-28 36-60 37" id="ah"/><path fill="#147eba" d="M115-194c53 0 69 39 70 98 0 66-23 100-70 100C84 3 66-7 56-30L54 0H23l1-261h32v101c10-23 28-34 59-34zm-8 174c40 0 45-34 45-75 0-40-5-75-45-74-42 0-51 32-51 76 0 43 10 73 51 73" id="ai"/><path fill="#147eba" d="M117-194c89-4 53 116 60 194h-32v-121c0-31-8-49-39-48C34-167 62-67 57 0H25l-1-190h30c1 10-1 24 2 32 11-22 29-35 61-36" id="aj"/><g id="g"><use transform="matrix(0.04938271604938272,0,0,0.04938271604938272,0,0)" xlink:href="#ag"/><use transform="matrix(0.04938271604938272,0,0,0.04938271604938272,11.851851851851853,0)" xlink:href="#ah"/><use transform="matrix(0.04938271604938272,0,0,0.04938271604938272,21.7283950617284,0)" xlink:href="#ai"/><use transform="matrix(0.04938271604938272,0,0,0.04938271604938272,31.60493827160494,0)" xlink:href="#aj"/><use transform="matrix(0.04938271604938272,0,0,0.04938271604938272,41.48148148148149,0)" xlink:href="#af"/><use transform="matrix(0.04938271604938272,0,0,0.04938271604938272,51.35802469135803,0)" xlink:href="#ae"/></g><path fill="#147eba" d="M27 0v-27h64v-190l-56 39v-29l58-41h29v221h61V0H27" id="ak"/><use transform="matrix(0.04938271604938272,0,0,0.04938271604938272,0,0)" xlink:href="#ak" id="h"/><path fill="#147eba" d="M16-82v-28h88v28H16" id="al"/><use transform="matrix(0.04938271604938272,0,0,0.04938271604938272,0,0)" xlink:href="#al" id="i"/><path fill="#147eba" d="M126-127c33 6 58 20 58 59 0 88-139 92-164 29-3-8-5-16-6-25l32-3c6 27 21 44 54 44 32 0 52-15 52-46 0-38-36-46-79-43v-28c39 1 72-4 72-42 0-27-17-43-46-43-28 0-47 15-49 41l-32-3c6-42 35-63 81-64 48-1 79 21 79 65 0 36-21 52-52 59" id="am"/><use transform="matrix(0.04938271604938272,0,0,0.04938271604938272,0,0)" xlink:href="#am" id="j"/><path fill="#666" d="M147 0H94L2-248h55l64 206c17-72 42-137 63-206h54" id="an"/><path fill="#666" d="M24-248c93 1 206-16 204 79-1 75-69 88-152 82V0H24v-248zm52 121c47 0 100 7 100-41 0-47-54-39-100-39v80" id="ao"/><path fill="#666" d="M67-125c0 53 21 87 73 88 37 1 54-22 65-47l45 17C233-25 199 4 140 4 58 4 20-42 15-125 8-235 124-281 211-232c18 10 29 29 36 50l-46 12c-8-25-30-41-62-41-52 0-71 34-72 86" id="ap"/><g id="k"><use transform="matrix(0.04938271604938272,0,0,0.04938271604938272,0,0)" xlink:href="#an"/><use transform="matrix(0.04938271604938272,0,0,0.04938271604938272,11.851851851851853,0)" xlink:href="#ao"/><use transform="matrix(0.04938271604938272,0,0,0.04938271604938272,23.703703703703706,0)" xlink:href="#ap"/></g><path fill="#666" d="M27 0v-27h64v-190l-56 39v-29l58-41h29v221h61V0H27" id="aq"/><path fill="#666" d="M33 0v-38h34V0H33" id="ar"/><path fill="#666" d="M101-251c68 0 85 55 85 127S166 4 100 4C33 4 14-52 14-124c0-73 17-127 87-127zm-1 229c47 0 54-49 54-102s-4-102-53-102c-51 0-55 48-55 102 0 53 5 102 54 102" id="as"/><path fill="#666" d="M0 4l72-265h28L28 4H0" id="at"/><path fill="#666" d="M110-160c48 1 74 30 74 79 0 53-28 85-80 85-65 0-83-55-86-122-5-90 50-162 133-122 14 7 22 21 27 39l-31 6c-5-40-67-38-82-6-9 19-15 44-15 74 11-20 30-34 60-33zm-7 138c34 0 49-23 49-58s-16-56-50-56c-29 0-50 16-49 49 1 36 15 65 50 65" id="au"/><g id="l"><use transform="matrix(0.04320987654320988,0,0,0.04320987654320988,0,0)" xlink:href="#aq"/><use transform="matrix(0.04320987654320988,0,0,0.04320987654320988,7.475308641975309,0)" xlink:href="#aq"/><use transform="matrix(0.04320987654320988,0,0,0.04320987654320988,16.117283950617285,0)" xlink:href="#ar"/><use transform="matrix(0.04320987654320988,0,0,0.04320987654320988,20.438271604938272,0)" xlink:href="#as"/><use transform="matrix(0.04320987654320988,0,0,0.04320987654320988,29.080246913580247,0)" xlink:href="#ar"/><use transform="matrix(0.04320987654320988,0,0,0.04320987654320988,33.401234567901234,0)" xlink:href="#as"/><use transform="matrix(0.04320987654320988,0,0,0.04320987654320988,42.04320987654321,0)" xlink:href="#ar"/><use transform="matrix(0.04320987654320988,0,0,0.04320987654320988,46.364197530864196,0)" xlink:href="#as"/><use transform="matrix(0.04320987654320988,0,0,0.04320987654320988,55.00617283950617,0)" xlink:href="#at"/><use transform="matrix(0.04320987654320988,0,0,0.04320987654320988,59.32716049382716,0)" xlink:href="#aq"/><use transform="matrix(0.04320987654320988,0,0,0.04320987654320988,67.96913580246914,0)" xlink:href="#au"/></g><path fill="#666" d="M199 0l-22-63H83L61 0H9l90-248h61L250 0h-51zm-33-102l-36-108c-10 38-24 72-36 108h72" id="av"/><path fill="#666" d="M275 0h-61l-44-196L126 0H64L0-248h53L97-49l45-199h58l43 199 44-199h52" id="aw"/><path fill="#666" d="M169-182c-1-43-94-46-97-3 18 66 151 10 154 114 3 95-165 93-204 36-6-8-10-19-12-30l50-8c3 46 112 56 116 5-17-69-150-10-154-114-4-87 153-88 188-35 5 8 8 18 10 28" id="ax"/><g id="m"><use transform="matrix(0.04938271604938272,0,0,0.04938271604938272,0,0)" xlink:href="#av"/><use transform="matrix(0.04938271604938272,0,0,0.04938271604938272,11.80246913580247,0)" xlink:href="#aw"/><use transform="matrix(0.04938271604938272,0,0,0.04938271604938272,28.543209876543205,0)" xlink:href="#ax"/></g><path fill="#666" d="M25 0v-261h50V0H25" id="ay"/><g id="n"><use transform="matrix(0.04938271604938272,0,0,0.04938271604938272,0,0)" xlink:href="#ap"/><use transform="matrix(0.04938271604938272,0,0,0.04938271604938272,12.790123456790125,0)" xlink:href="#ay"/><use transform="matrix(0.04938271604938272,0,0,0.04938271604938272,17.7283950617284,0)" xlink:href="#K"/><use transform="matrix(0.04938271604938272,0,0,0.04938271604938272,28.54320987654322,0)" xlink:href="#C"/><use transform="matrix(0.04938271604938272,0,0,0.04938271604938272,39.35802469135803,0)" xlink:href="#M"/></g><path fill="#666" d="M33 0v-248h34V0H33" id="az"/><path fill="#666" d="M117-194c89-4 53 116 60 194h-32v-121c0-31-8-49-39-48C34-167 62-67 57 0H25l-1-190h30c1 10-1 24 2 32 11-22 29-35 61-36" id="aA"/><path fill="#666" d="M59-47c-2 24 18 29 38 22v24C64 9 27 4 27-40v-127H5v-23h24l9-43h21v43h35v23H59v120" id="aB"/><path fill="#666" d="M100-194c63 0 86 42 84 106H49c0 40 14 67 53 68 26 1 43-12 49-29l28 8c-11 28-37 45-77 45C44 4 14-33 15-96c1-61 26-98 85-98zm52 81c6-60-76-77-97-28-3 7-6 17-6 28h103" id="aC"/><path fill="#666" d="M114-163C36-179 61-72 57 0H25l-1-190h30c1 12-1 29 2 39 6-27 23-49 58-41v29" id="aD"/><g id="o"><use transform="matrix(0.04938271604938272,0,0,0.04938271604938272,0,0)" xlink:href="#az"/><use transform="matrix(0.04938271604938272,0,0,0.04938271604938272,4.938271604938272,0)" xlink:href="#aA"/><use transform="matrix(0.04938271604938272,0,0,0.04938271604938272,14.814814814814817,0)" xlink:href="#aB"/><use transform="matrix(0.04938271604938272,0,0,0.04938271604938272,19.75308641975309,0)" xlink:href="#aC"/><use transform="matrix(0.04938271604938272,0,0,0.04938271604938272,29.629629629629633,0)" xlink:href="#aD"/><use transform="matrix(0.04938271604938272,0,0,0.04938271604938272,35.50617283950618,0)" xlink:href="#aA"/><use transform="matrix(0.04938271604938272,0,0,0.04938271604938272,45.38271604938272,0)" xlink:href="#aC"/><use transform="matrix(0.04938271604938272,0,0,0.04938271604938272,55.25925925925927,0)" xlink:href="#aB"/></g><path fill="#666" d="M143 4C61 4 22-44 18-125c-5-107 100-154 193-111 17 8 29 25 37 43l-32 9c-13-25-37-40-76-40-61 0-88 39-88 99 0 61 29 100 91 101 35 0 62-11 79-27v-45h-74v-28h105v86C228-13 192 4 143 4" id="aE"/><path fill="#666" d="M141-36C126-15 110 5 73 4 37 3 15-17 15-53c-1-64 63-63 125-63 3-35-9-54-41-54-24 1-41 7-42 31l-33-3c5-37 33-52 76-52 45 0 72 20 72 64v82c-1 20 7 32 28 27v20c-31 9-61-2-59-35zM48-53c0 20 12 33 32 33 41-3 63-29 60-74-43 2-92-5-92 41" id="aF"/><path fill="#666" d="M206 0h-36l-40-164L89 0H53L-1-190h32L70-26l43-164h34l41 164 42-164h31" id="aG"/><path fill="#666" d="M179-190L93 31C79 59 56 82 12 73V49c39 6 53-20 64-50L1-190h34L92-34l54-156h33" id="aH"/><g id="p"><use transform="matrix(0.04938271604938272,0,0,0.04938271604938272,0,0)" xlink:href="#aE"/><use transform="matrix(0.04938271604938272,0,0,0.04938271604938272,13.827160493827162,0)" xlink:href="#aF"/><use transform="matrix(0.04938271604938272,0,0,0.04938271604938272,23.703703703703706,0)" xlink:href="#aB"/><use transform="matrix(0.04938271604938272,0,0,0.04938271604938272,28.641975308641978,0)" xlink:href="#aC"/><use transform="matrix(0.04938271604938272,0,0,0.04938271604938272,38.51851851851852,0)" xlink:href="#aG"/><use transform="matrix(0.04938271604938272,0,0,0.04938271604938272,51.308641975308646,0)" xlink:href="#aF"/><use transform="matrix(0.04938271604938272,0,0,0.04938271604938272,61.18518518518519,0)" xlink:href="#aH"/></g><path d="M205 0l-28-72H64L36 0H1l101-248h38L239 0h-34zm-38-99l-47-123c-12 45-31 82-46 123h93" id="aI"/><path d="M210-169c-67 3-38 105-44 169h-31v-121c0-29-5-50-35-48C34-165 62-65 56 0H25l-1-190h30c1 10-1 24 2 32 10-44 99-50 107 0 11-21 27-35 58-36 85-2 47 119 55 194h-31v-121c0-29-5-49-35-48" id="aJ"/><path d="M141-36C126-15 110 5 73 4 37 3 15-17 15-53c-1-64 63-63 125-63 3-35-9-54-41-54-24 1-41 7-42 31l-33-3c5-37 33-52 76-52 45 0 72 20 72 64v82c-1 20 7 32 28 27v20c-31 9-61-2-59-35zM48-53c0 20 12 33 32 33 41-3 63-29 60-74-43 2-92-5-92 41" id="aK"/><path d="M9 0v-24l116-142H16v-24h144v24L44-24h123V0H9" id="aL"/><path d="M100-194c62-1 85 37 85 99 1 63-27 99-86 99S16-35 15-95c0-66 28-99 85-99zM99-20c44 1 53-31 53-75 0-43-8-75-51-75s-53 32-53 75 10 74 51 75" id="aM"/><path d="M117-194c89-4 53 116 60 194h-32v-121c0-31-8-49-39-48C34-167 62-67 57 0H25l-1-190h30c1 10-1 24 2 32 11-22 29-35 61-36" id="aN"/><g id="q"><use transform="matrix(0.05,0,0,0.05,0,0)" xlink:href="#aI"/><use transform="matrix(0.05,0,0,0.05,12,0)" xlink:href="#aJ"/><use transform="matrix(0.05,0,0,0.05,26.950000000000003,0)" xlink:href="#aK"/><use transform="matrix(0.05,0,0,0.05,36.95,0)" xlink:href="#aL"/><use transform="matrix(0.05,0,0,0.05,45.95,0)" xlink:href="#aM"/><use transform="matrix(0.05,0,0,0.05,55.95,0)" xlink:href="#aN"/></g><path d="M30 0v-248h187v28H63v79h144v27H63v87h162V0H30" id="aO"/><path d="M212-179c-10-28-35-45-73-45-59 0-87 40-87 99 0 60 29 101 89 101 43 0 62-24 78-52l27 14C228-24 195 4 139 4 59 4 22-46 18-125c-6-104 99-153 187-111 19 9 31 26 39 46" id="aP"/><path d="M101-251c82-7 93 87 43 132L82-64C71-53 59-42 53-27h129V0H18c2-99 128-94 128-182 0-28-16-43-45-43s-46 15-49 41l-32-3c6-41 34-60 81-64" id="aQ"/><g id="r"><use transform="matrix(0.05,0,0,0.05,0,0)" xlink:href="#aO"/><use transform="matrix(0.05,0,0,0.05,12,0)" xlink:href="#aP"/><use transform="matrix(0.05,0,0,0.05,24.950000000000003,0)" xlink:href="#aQ"/></g><path d="M30-248c87 1 191-15 191 75 0 78-77 80-158 76V0H30v-248zm33 125c57 0 124 11 124-50 0-59-68-47-124-48v98" id="aR"/><path d="M135-143c-3-34-86-38-87 0 15 53 115 12 119 90S17 21 10-45l28-5c4 36 97 45 98 0-10-56-113-15-118-90-4-57 82-63 122-42 12 7 21 19 24 35" id="aS"/><path d="M59-47c-2 24 18 29 38 22v24C64 9 27 4 27-40v-127H5v-23h24l9-43h21v43h35v23H59v120" id="aT"/><path d="M177-190C167-65 218 103 67 71c-23-6-38-20-44-43l32-5c15 47 100 32 89-28v-30C133-14 115 1 83 1 29 1 15-40 15-95c0-56 16-97 71-98 29-1 48 16 59 35 1-10 0-23 2-32h30zM94-22c36 0 50-32 50-73 0-42-14-75-50-75-39 0-46 34-46 75s6 73 46 73" id="aU"/><path d="M114-163C36-179 61-72 57 0H25l-1-190h30c1 12-1 29 2 39 6-27 23-49 58-41v29" id="aV"/><path d="M100-194c63 0 86 42 84 106H49c0 40 14 67 53 68 26 1 43-12 49-29l28 8c-11 28-37 45-77 45C44 4 14-33 15-96c1-61 26-98 85-98zm52 81c6-60-76-77-97-28-3 7-6 17-6 28h103" id="aW"/><g id="s"><use transform="matrix(0.05,0,0,0.05,0,0)" xlink:href="#aR"/><use transform="matrix(0.05,0,0,0.05,12,0)" xlink:href="#aM"/><use transform="matrix(0.05,0,0,0.05,22,0)" xlink:href="#aS"/><use transform="matrix(0.05,0,0,0.05,31,0)" xlink:href="#aT"/><use transform="matrix(0.05,0,0,0.05,36,0)" xlink:href="#aU"/><use transform="matrix(0.05,0,0,0.05,46,0)" xlink:href="#aV"/><use transform="matrix(0.05,0,0,0.05,51.95,0)" xlink:href="#aW"/></g><path d="M185-189c-5-48-123-54-124 2 14 75 158 14 163 119 3 78-121 87-175 55-17-10-28-26-33-46l33-7c5 56 141 63 141-1 0-78-155-14-162-118-5-82 145-84 179-34 5 7 8 16 11 25" id="aX"/><path d="M140-251c81 0 123 46 123 126C263-53 228-8 163 1c7 30 30 48 69 40v23c-55 16-95-15-103-61C56-3 17-48 17-125c0-80 42-126 123-126zm0 227c63 0 89-41 89-101s-29-99-89-99c-61 0-89 39-89 99S79-25 140-24" id="aY"/><path d="M30 0v-248h33v221h125V0H30" id="aZ"/><g id="t"><use transform="matrix(0.05,0,0,0.05,0,0)" xlink:href="#aX"/><use transform="matrix(0.05,0,0,0.05,12,0)" xlink:href="#aY"/><use transform="matrix(0.05,0,0,0.05,26,0)" xlink:href="#aZ"/></g><path d="M24-231v-30h32v30H24zM24 0v-190h32V0H24" id="ba"/><path d="M96-169c-40 0-48 33-48 73s9 75 48 75c24 0 41-14 43-38l32 2c-6 37-31 61-74 61-59 0-76-41-82-99-10-93 101-131 147-64 4 7 5 14 7 22l-32 3c-4-21-16-35-41-35" id="bb"/><g id="u"><use transform="matrix(0.05,0,0,0.05,0,0)" xlink:href="#ba"/><use transform="matrix(0.05,0,0,0.05,3.95,0)" xlink:href="#aN"/><use transform="matrix(0.05,0,0,0.05,13.949999999999998,0)" xlink:href="#aS"/><use transform="matrix(0.05,0,0,0.05,22.95,0)" xlink:href="#aT"/><use transform="matrix(0.05,0,0,0.05,27.950000000000003,0)" xlink:href="#aK"/><use transform="matrix(0.05,0,0,0.05,37.95,0)" xlink:href="#aN"/><use transform="matrix(0.05,0,0,0.05,47.95,0)" xlink:href="#bb"/><use transform="matrix(0.05,0,0,0.05,56.95,0)" xlink:href="#aW"/></g><path d="M233-177c-1 41-23 64-60 70L243 0h-38l-65-103H63V0H30v-248c88 3 205-21 203 71zM63-129c60-2 137 13 137-47 0-61-80-42-137-45v92" id="bc"/><path d="M84 4C-5 8 30-112 23-190h32v120c0 31 7 50 39 49 72-2 45-101 50-169h31l1 190h-30c-1-10 1-25-2-33-11 22-28 36-60 37" id="bd"/><g id="v"><use transform="matrix(0.05,0,0,0.05,0,0)" xlink:href="#bc"/><use transform="matrix(0.05,0,0,0.05,12.950000000000001,0)" xlink:href="#aM"/><use transform="matrix(0.05,0,0,0.05,22.950000000000003,0)" xlink:href="#bd"/><use transform="matrix(0.05,0,0,0.05,32.95,0)" xlink:href="#aT"/><use transform="matrix(0.05,0,0,0.05,37.95,0)" xlink:href="#aW"/></g><path d="M115-194c53 0 69 39 70 98 0 66-23 100-70 100C84 3 66-7 56-30L54 0H23l1-261h32v101c10-23 28-34 59-34zm-8 174c40 0 45-34 45-75 0-40-5-75-45-74-42 0-51 32-51 76 0 43 10 73 51 73" id="be"/><path d="M24 0v-261h32V0H24" id="bf"/><g id="w"><use transform="matrix(0.05,0,0,0.05,0,0)" xlink:href="#aT"/><use transform="matrix(0.05,0,0,0.05,5,0)" xlink:href="#aK"/><use transform="matrix(0.05,0,0,0.05,15,0)" xlink:href="#be"/><use transform="matrix(0.05,0,0,0.05,25,0)" xlink:href="#bf"/><use transform="matrix(0.05,0,0,0.05,28.950000000000003,0)" xlink:href="#aW"/></g><linearGradient gradientUnits="userSpaceOnUse" id="x" x1="200" y1="641.45" x2="200" y2="535.47"><stop offset="0%" stop-color="#0078d4" stop-opacity=".75"/><stop offset="81.7%" stop-color="#5ea0ef" stop-opacity=".75"/></linearGradient><linearGradient gradientUnits="userSpaceOnUse" id="y" x1="199.98" y1="641.44" x2="199.98" y2="535.42"><stop offset="0%" stop-color="#32bedd" stop-opacity=".75"/><stop offset="11.3%" stop-color="#3ccce9" stop-opacity=".75"/><stop offset="29.2%" stop-color="#47dbf5" stop-opacity=".75"/><stop offset="50.4%" stop-color="#4ee3fd" stop-opacity=".75"/><stop offset="83.4%" stop-color="#50e6ff" stop-opacity=".75"/></linearGradient><path d="M197 0v-115H63V0H30v-248h33v105h134v-105h34V0h-34" id="bg"/><g id="z"><use transform="matrix(0.05,0,0,0.05,0,0)" xlink:href="#aX"/><use transform="matrix(0.05,0,0,0.05,12,0)" xlink:href="#aX"/><use transform="matrix(0.05,0,0,0.05,24,0)" xlink:href="#bg"/></g><path d="M194 0L95-120 63-95V0H30v-248h33v124l119-124h40L117-140 236 0h-42" id="bh"/><path d="M179-190L93 31C79 59 56 82 12 73V49c39 6 53-20 64-50L1-190h34L92-34l54-156h33" id="bi"/><g id="A"><use transform="matrix(0.05,0,0,0.05,0,0)" xlink:href="#bh"/><use transform="matrix(0.05,0,0,0.05,12,0)" xlink:href="#aW"/><use transform="matrix(0.05,0,0,0.05,22,0)" xlink:href="#bi"/></g></defs></g></svg>